<?xml version="1.0" encoding="UTF-8"?>
<svg width="195px" height="72px" viewBox="0 0 195 72" version="1.1" xmlns="http://www.w3.org/2000/svg" xmlns:xlink="http://www.w3.org/1999/xlink">
    <!-- Generator: Sketch 59.1 (86144) - https://sketch.com -->
    <title>Group 25</title>
    <desc>Created with Sketch.</desc>
    <g id="Page-1" stroke="none" stroke-width="1" fill="none" fill-rule="evenodd">
        <g id="B---PHOTOなし" transform="translate(-64.000000, -56.000000)">
            <g id="Group-25" transform="translate(64.000000, 56.000000)">
                <g id="Group-8" transform="translate(0.000343, 0.685783)">
                    <polygon id="Fill-1" fill="#000000" points="83.5358028 -1.77635684e-14 73.5715775 28.9769143 73.4665246 28.9769143 63.2420704 -1.77635684e-14 54.1065951 -1.77635684e-14 54.1065951 37.0107429 60.2841127 37.0107429 60.2841127 8.45005714 60.3871056 8.45005714 70.6644296 37.0107429 76.0104507 37.0107429 86.2877746 8.45005714 86.3907676 8.45005714 86.3907676 37.0107429 92.5675986 37.0107429 92.5675986 -1.77635684e-14"></polygon>
                    <polygon id="Fill-2" fill="#000000" points="114.732164 -1.77635684e-14 114.732164 37.0107429 141.773995 37.0107429 141.773995 31.4118857 121.220033 31.4118857 121.220033 20.5789714 139.905016 20.5789714 139.905016 15.2914286 121.220033 15.2914286 121.220033 5.59885714 141.410773 5.59885714 141.410773 -1.77635684e-14"></polygon>
                    <path d="M187.651109,23.7150171 C187.322218,25.3216457 186.699454,26.7218743 185.782817,27.9136457 C184.865493,29.1061029 183.602799,30.03936 181.994049,30.7127314 C180.384613,31.3867886 178.316514,31.72416 175.791813,31.72416 L169.406937,31.72416 L169.406937,5.28781714 L175.791813,5.28781714 C178.316514,5.28781714 180.384613,5.62450286 181.994049,6.29856 C183.602799,6.97261714 184.865493,7.90518857 185.782817,9.09764571 C186.699454,10.2894171 187.322218,11.6896457 187.651109,13.2962743 C187.98,14.9029029 188.144102,16.6391314 188.144102,18.5063314 C188.144102,20.37216 187.98,22.1083886 187.651109,23.7150171 M193.672077,11.3008457 C193.031461,9.05444571 192.053715,7.09398857 190.739525,5.41741714 C189.424648,3.74153143 187.729384,2.42016 185.653046,1.45193143 C183.576708,0.485074286 181.119296,0.000274285714 178.282183,0.000274285714 L162.919067,0.000274285714 L162.919067,37.0110171 L178.282183,37.0110171 C181.119296,37.0110171 183.576708,36.5269029 185.653046,35.5586743 C187.729384,34.5925029 189.424648,33.2711314 190.739525,31.59456 C192.053715,29.9179886 193.031461,27.9575314 193.672077,25.7104457 C194.31132,23.4647314 194.631972,21.06336 194.631972,18.5063314 C194.631972,15.9486171 194.31132,13.5472457 193.672077,11.3008457" id="Fill-3" fill="#000000"></path>
                    <path d="M23.8806338,0.0163885714 L23.8806338,0.244731429 C23.9911796,0.244731429 24.2026585,0.353074286 24.2177641,0.56496 L24.2177641,27.28176 L24.1147711,27.28176 L7.19371479,0.0163885714 L0.000686619718,0.0163885714 L0.000686619718,0.244731429 C0.113978873,0.244731429 0.338503521,0.357188571 0.34193662,0.582102857 L0.34193662,36.4573029 C0.34193662,36.68496 0.113978873,36.7987886 -3.55271368e-14,36.7987886 L-3.55271368e-14,37.0271314 L6.86070423,37.0271314 L6.86070423,36.7987886 C6.74741197,36.7987886 6.52014085,36.6856457 6.51876761,36.4586743 L6.51876761,9.81318857 L6.67463028,9.81318857 L23.5435035,37.0271314 L30.3945951,37.0271314 L30.3980282,0.56496 C30.4131338,0.353074286 30.6246127,0.244045714 30.7351585,0.244045714 L30.7351585,0.0163885714 L23.8806338,0.0163885714 Z" id="Fill-23" fill="#0A35A0"></path>
                </g>
                <g id="Group-9" transform="translate(0.567423, 57.637234)" fill="#777777">
                    <polygon id="Fill-5" points="8.59510563 10.1336914 8.55802817 10.1336914 2.46633803 0.318377143 -2.22044605e-14 0.318377143 -2.22044605e-14 13.6418057 2.22327465 13.6418057 2.22327465 3.84432 2.27889085 3.84432 8.35272887 13.6418057 10.8190669 13.6418057 10.8190669 0.318377143 8.59510563 0.318377143"></polygon>
                    <path d="M56.164669,10.9191771 L56.164669,0.318034286 L54.0347746,0.318034286 L54.0347746,11.0816914 C54.0347746,12.01152 54.2998099,12.6732343 54.8298803,13.0661486 C55.3324859,13.4535771 55.9710423,13.6469486 56.7455493,13.6469486 L57.6937711,13.6469486 L57.6937711,11.64192 L56.9597746,11.64192 C56.4297042,11.64192 56.164669,11.4012343 56.164669,10.9191771" id="Fill-21"></path>
                    <path d="M25.1487518,10.1367086 C25.1487518,10.4925943 25.0464454,10.7744229 24.8747905,11.0185371 C24.7031356,11.2619657 24.4889102,11.46288 24.2314278,11.62128 C23.9739454,11.77968 23.7157764,11.9099657 23.4260229,11.97648 C23.1355827,12.0423086 22.8650546,12.0745371 22.6144384,12.0745371 C22.4160053,12.0745371 22.1949137,12.0553371 21.9504771,12.0155657 C21.7060405,11.97648 21.4822025,11.9072229 21.2775898,11.8077943 C21.0722905,11.7083657 20.8978891,11.5739657 20.7530123,11.4025371 C20.6074489,11.2311086 20.5353539,11.0199086 20.5353539,10.7696229 C20.5353539,10.4795657 20.5847905,10.2327086 20.6836637,10.02768 C20.7818504,9.82333714 20.9171144,9.65876571 21.0887694,9.53396571 C21.2604243,9.40848 21.4588574,9.30973714 21.683382,9.23705143 C21.9072201,9.16436571 22.1386109,9.10813714 22.3761813,9.06905143 C22.8781004,8.97648 23.3841391,8.94082286 23.8812518,8.86128 C24.3927835,8.77899429 24.8109349,8.65145143 25.1487518,8.49305143 L25.1487518,10.1367086 Z M25.408294,13.6441371 L27.7778187,13.6441371 C27.3967447,12.6690514 27.3974313,11.7049371 27.4063574,10.7401371 L27.4063574,6.04299429 C27.4063574,5.50265143 27.2875722,5.04390857 27.0500018,4.66813714 C26.8117447,4.29236571 26.4986461,3.98585143 26.1093327,3.74859429 C25.7200194,3.51133714 25.2805827,3.33990857 24.7923961,3.23499429 C24.3035229,3.12939429 23.8091567,3.07659429 23.3072377,3.07659429 C22.7394032,3.07659429 22.1853011,3.12939429 21.6435581,3.23499429 C21.1018151,3.33990857 20.6170616,3.52436571 20.1879243,3.78836571 C19.758787,4.05236571 19.4058644,4.40139429 19.1284701,4.83682286 C18.8510757,5.27156571 18.6931532,5.81876571 18.6540158,6.47842286 L20.9116215,6.47842286 C20.9638046,5.92436571 21.1951954,5.51568 21.6044208,5.25168 C22.0136461,4.98836571 22.5347905,4.85602286 23.1692271,4.85602286 C23.3930651,4.85602286 23.6306356,4.87316571 23.8812518,4.90608 C24.131868,4.93899429 24.3598257,5.00482286 24.565125,5.10356571 C24.7690511,5.20230857 24.9413926,5.34425143 25.0794032,5.52870857 C25.2181004,5.71385143 25.2874489,5.95110857 25.2874489,6.24048 C25.2874489,6.57030857 25.2050546,6.81785143 25.0395792,6.98242286 C24.8754771,7.14699429 24.6502658,7.26905143 24.3666919,7.34790857 C24.083118,7.42745143 23.7556004,7.48368 23.3868856,7.51659429 C23.0167975,7.54950857 22.6274842,7.60573714 22.2182588,7.68459429 C21.743118,7.73670857 21.2707236,7.81282286 20.8017623,7.91156571 C20.3334877,8.01030857 19.9112165,8.17213714 19.5349489,8.39636571 C19.1579947,8.62059429 18.8545088,8.93053714 18.6238046,9.32550857 C18.3931004,9.72185143 18.2777482,10.2361371 18.2777482,10.8683657 C18.2777482,11.3696229 18.3725018,11.8077943 18.5640687,12.1835657 C18.7556356,12.5593371 19.0124313,12.86928 19.3365158,13.1133943 C19.6599137,13.3575086 20.0327482,13.5419657 20.455706,13.6667657 C20.8779771,13.7922514 21.3194736,13.8546514 21.7822553,13.8546514 C22.3892271,13.8546514 23.019544,13.7559086 23.6738926,13.5577371 C24.3275546,13.3602514 24.7079419,12.98448 25.1569912,12.5497371 L25.1652306,12.5449371 C25.1865158,12.8473371 25.3059877,13.4096229 25.4069208,13.6393371 C25.408294,13.6413943 25.4076074,13.64208 25.408294,13.6441371 L25.408294,13.6441371 Z" id="Fill-22"></path>
                    <path d="M44.0281162,9.92845714 C43.8667606,10.3515429 43.6422359,10.7211429 43.3559155,11.0393143 C43.0695951,11.3561143 42.7262852,11.6050286 42.3280458,11.7853714 C41.9298063,11.9657143 41.4683979,12.0555429 40.9451937,12.0555429 C40.2359155,12.0555429 39.6213908,11.9129143 39.1050528,11.6262857 C38.5880282,11.3410286 38.1671303,10.9577143 37.8430458,10.4790857 C37.5196479,9.99977143 37.279331,9.456 37.1241549,8.84571429 C36.9682923,8.2368 36.8900176,7.61417143 36.8900176,6.97988571 C36.8900176,6.34491429 36.9682923,5.72365714 37.1241549,5.11405714 C37.279331,4.50445714 37.5196479,3.96 37.8430458,3.48137143 C38.1671303,3.00205714 38.5880282,2.61942857 39.1050528,2.3328 C39.6213908,2.04754286 40.2359155,1.90354286 40.9451937,1.90354286 C41.4306338,1.90354286 41.8577113,1.96937143 42.2257394,2.09965714 C42.5923944,2.23062857 42.9137324,2.41371429 43.1876937,2.65097143 C43.4616549,2.88617143 43.685493,3.16731429 43.860581,3.49028571 C44.0342958,3.81394286 44.1723063,4.16845714 44.2711796,4.55451429 L46.6070599,4.55451429 C46.5322183,3.83245714 46.3399648,3.19131429 46.0282394,2.63108571 C45.7158275,2.07154286 45.308662,1.59565714 44.8033099,1.20411429 C44.3000176,0.811885714 43.7170775,0.5136 43.0565493,0.307885714 C42.3973944,0.103542857 41.6922359,5.32907052e-15 40.9451937,5.32907052e-15 C39.9489085,5.32907052e-15 39.054243,0.1872 38.263257,0.559542857 C37.4729577,0.933257143 36.8028169,1.43657143 36.255581,2.07154286 C35.7069718,2.70651429 35.2860739,3.4464 34.9942606,4.29257143 C34.7017606,5.13874286 34.5541373,6.03428571 34.5541373,6.97988571 C34.5541373,7.93782857 34.7017606,8.84022857 34.9942606,9.68571429 C35.2860739,10.5318857 35.7069718,11.2717714 36.255581,11.9067429 C36.8028169,12.5417143 37.4729577,13.0416 38.263257,13.4091429 C39.054243,13.7753143 39.9489085,13.9590857 40.9451937,13.9590857 C41.7554049,13.9590857 42.4962676,13.8281143 43.1698415,13.5668571 C43.8420423,13.3056 44.4277289,12.936 44.9255282,12.4573714 C45.4240141,11.9787429 45.819507,11.4082286 46.1126937,10.7492571 C46.404507,10.0902857 46.5754754,9.36205714 46.6255986,8.56525714 L44.3467077,8.56525714 C44.2972711,9.05142857 44.1901585,9.50537143 44.0281162,9.92845714" id="Fill-7"></path>
                    <polygon id="Fill-10" points="82.2464683 10.7493943 82.2087042 10.7493943 78.5277359 0.318308571 75.2388275 0.318308571 75.2388275 13.6417371 77.4621021 13.6417371 77.4621021 3.35945143 77.4998662 3.35945143 81.2000599 13.6417371 83.1239683 13.6417371 86.8248486 3.35945143 86.8626127 3.35945143 86.8626127 13.6417371 89.0852007 13.6417371 89.0852007 0.318308571 85.8340563 0.318308571"></polygon>
                    <polygon id="Fill-12" points="100.598165 7.72594286 107.324979 7.72594286 107.324979 5.82308571 100.598165 5.82308571 100.598165 2.3328 107.867408 2.3328 107.867408 0.318171429 98.2629718 0.318171429 98.2629718 13.6416 107.997866 13.6416 107.997866 11.6256 100.598165 11.6256"></polygon>
                    <path d="M125.170981,8.85366857 C125.052195,9.43241143 124.828357,9.93572571 124.498093,10.3649829 C124.167143,10.79424 123.713287,11.13024 123.134467,11.3736686 C122.554273,11.6157257 121.809977,11.7370971 120.900893,11.7370971 L118.603463,11.7370971 L118.603463,2.22006857 L120.900893,2.22006857 C121.809977,2.22006857 122.554273,2.34006857 123.134467,2.58349714 C123.713287,2.82624 124.167143,3.16155429 124.498093,3.59081143 C124.828357,4.02006857 125.052195,4.52475429 125.170981,5.10212571 C125.289079,5.68155429 125.348815,6.30624 125.348815,6.97892571 C125.348815,7.64955429 125.289079,8.27561143 125.170981,8.85366857 M126.281931,2.26669714 C125.80885,1.66326857 125.198445,1.18738286 124.451403,0.83904 C123.704361,0.490697143 122.819308,0.316525714 121.798305,0.316525714 L116.266896,0.316525714 L116.266896,13.64064 L121.798305,13.64064 C122.819308,13.64064 123.704361,13.4664686 124.451403,13.1181257 C125.198445,12.7697829 125.80885,12.2938971 126.281931,11.6904686 C126.755699,11.08704 127.107248,10.38144 127.338639,9.57229714 C127.568657,8.76384 127.684009,7.89846857 127.684009,6.97892571 C127.684009,6.05801143 127.568657,5.19332571 127.338639,4.38418286 C127.107248,3.57572571 126.755699,2.87012571 126.281931,2.26669714" id="Fill-14"></path>
                    <polygon id="Fill-16" points="135.523352 13.64208 137.859232 13.64208 137.859232 0.317965714 135.523352 0.317965714"></polygon>
                    <path d="M154.981949,9.92845714 C154.820593,10.3515429 154.596069,10.7211429 154.309748,11.0393143 C154.023428,11.3561143 153.680118,11.6050286 153.281192,11.7853714 C152.882952,11.9657143 152.421544,12.0555429 151.899026,12.0555429 C151.189748,12.0555429 150.574537,11.9129143 150.058886,11.6262857 C149.541861,11.3410286 149.120963,10.9577143 148.796192,10.4790857 C148.473481,9.99977143 148.233164,9.456 148.077301,8.84571429 C147.921438,8.2368 147.84385,7.61417143 147.84385,6.97988571 C147.84385,6.34491429 147.921438,5.72365714 148.077301,5.11405714 C148.233164,4.50445714 148.473481,3.96 148.796192,3.48137143 C149.120963,3.00205714 149.541861,2.61942857 150.058886,2.3328 C150.574537,2.04754286 151.189748,1.90354286 151.899026,1.90354286 C152.384467,1.90354286 152.811544,1.96937143 153.179572,2.09965714 C153.546227,2.23062857 153.867565,2.41371429 154.14084,2.65097143 C154.415488,2.88617143 154.639326,3.16731429 154.814414,3.49028571 C154.988129,3.81394286 155.125452,4.16845714 155.225012,4.55451429 L157.560893,4.55451429 C157.485364,3.83245714 157.293111,3.19131429 156.982072,2.63108571 C156.66966,2.07154286 156.261808,1.59565714 155.757143,1.20411429 C155.25385,0.811885714 154.67091,0.5136 154.010382,0.307885714 C153.35054,0.103542857 152.646069,9.76996262e-15 151.899026,9.76996262e-15 C150.902741,9.76996262e-15 150.008076,0.1872 149.21709,0.559542857 C148.42679,0.933257143 147.75665,1.43657143 147.209414,2.07154286 C146.660805,2.70651429 146.239907,3.4464 145.948093,4.29257143 C145.654907,5.13874286 145.50797,6.03428571 145.50797,6.97988571 C145.50797,7.93782857 145.654907,8.84022857 145.948093,9.68571429 C146.239907,10.5318857 146.660805,11.2717714 147.209414,11.9067429 C147.75665,12.5417143 148.42679,13.0416 149.21709,13.4091429 C150.008076,13.7753143 150.902741,13.9590857 151.899026,13.9590857 C152.708551,13.9590857 153.4501,13.8281143 154.122988,13.5668571 C154.795875,13.3056 155.381562,12.936 155.879361,12.4573714 C156.377847,11.9787429 156.772653,11.4082286 157.06584,10.7492571 C157.35834,10.0902857 157.529308,9.36205714 157.578745,8.56525714 L155.30054,8.56525714 C155.250417,9.05142857 155.143991,9.50537143 154.981949,9.92845714" id="Fill-18"></path>
                    <path d="M167.381271,8.34171429 L169.399246,2.61325714 L169.455549,2.61325714 L171.455673,8.34171429 L167.381271,8.34171429 Z M168.203155,0.318171429 L163.083718,13.6416 L165.49444,13.6416 L166.746148,10.1142857 L172.072257,10.1142857 L173.323965,13.6416 L175.828067,13.6416 L170.688718,0.318171429 L168.203155,0.318171429 Z" id="Fill-19"></path>
                    <polygon id="Fill-20" points="184.610482 11.6259429 184.610482 0.317828571 182.275289 0.317828571 182.275289 13.6419429 191.394285 13.6419429 191.394285 11.6259429"></polygon>
                </g>
            </g>
        </g>
    </g>
</svg>